<?xml version="1.0" encoding="utf-8"?>
<!-- Generator: Adobe Illustrator 19.0.0, SVG Export Plug-In . SVG Version: 6.00 Build 0)  -->
<svg version="1.1" id="Layer_1" xmlns="http://www.w3.org/2000/svg" xmlns:xlink="http://www.w3.org/1999/xlink" x="0px" y="0px"
	 viewBox="209 268 24 24" style="enable-background:new 209 268 24 24;" xml:space="preserve">
<style type="text/css">
	.st0{fill:#0303FF;}
</style>
<g>
	<path class="st0" d="M231.8,274.7L231.8,274.7c-0.1-0.1-0.1-0.1-0.2-0.1c0,0,0,0,0,0l0,0c0,0-0.1,0-0.1,0c-0.1,0-0.1,0-0.1,0h0l0,0
		l0,0c-0.1,0-0.1,0.1-0.2,0.2c0,0,0,0,0,0c0,0.1,0,0.1,0,0.2c0,1.4-3.1,2.1-9.6,2.1c-7.6,0-9.7-1-10.2-1.6c-0.1-0.2-0.2-0.3-0.2-0.5
		c0-0.1,0-0.1-0.1-0.2l0,0c-0.1-0.1-0.2-0.2-0.3-0.1c0,0,0,0,0,0c0,0,0,0,0,0c-0.1,0-0.1,0.1-0.2,0.1l0,0l0,0l0,0l0,0
		c-0.9,1.1-1.4,2.5-1.3,3.9c0,0.9,0.3,1.9,0.7,2.7c-0.2,0-0.4,0.2-0.4,0.4c0,0.2,0.2,0.4,0.4,0.4h22.6c0.2,0,0.4-0.2,0.4-0.4
		c0-0.2-0.2-0.4-0.4-0.4c0.4-0.8,0.6-1.7,0.7-2.6C233.1,277.2,232.7,275.8,231.8,274.7L231.8,274.7z M210.7,281.3
		c-0.6-0.8-0.9-1.7-0.9-2.7c0-0.2,0-0.4,0-0.6c1.4,1.7,5.2,2.5,11.6,2.5c5.9,0,9.4-0.7,10.7-2.1c0,0.1,0,0.2,0,0.3l0,0
		c0,0.9-0.3,1.9-0.8,2.6H210.7z M210.4,275.9c0.9,2,4.4,2.8,11,2.8c5.6,0,8.7-0.6,9.9-2c0.2-0.2,0.3-0.4,0.4-0.6
		c0.1,0.1,0.1,0.3,0.2,0.4c0,0,0,0.1,0,0.1c0.1,0.4-0.1,0.8-0.3,1c-0.7,0.8-3.1,1.8-10.1,1.8c-9,0-11.1-1.6-11.3-3c0,0,0,0,0,0
		C210.2,276.3,210.3,276.1,210.4,275.9L210.4,275.9z M221.9,277.9c-0.1,0-0.1,0-0.2,0c0,0-0.1,0-0.1,0
		C221.8,277.9,221.9,277.9,221.9,277.9L221.9,277.9z"/>
	<path class="st0" d="M214.7,282.9h-4.2c-0.2,0-0.4,0.2-0.4,0.4c0,0.2,0.2,0.4,0.4,0.4h4.2c0.2,0,0.4-0.2,0.4-0.4
		C215.2,283.1,215,282.9,214.7,282.9z"/>
	<path class="st0" d="M217.3,283.8c0.2,0,0.4-0.2,0.4-0.4c0-0.2-0.2-0.4-0.4-0.4h-0.8c-0.2,0-0.4,0.2-0.4,0.4c0,0.2,0.2,0.4,0.4,0.4
		H217.3z"/>
	<path class="st0" d="M225.6,282.9h-6.7c-0.2,0-0.4,0.2-0.4,0.4c0,0.2,0.2,0.4,0.4,0.4h6.7c0.2,0,0.4-0.2,0.4-0.4
		C226,283.1,225.8,282.9,225.6,282.9z"/>
	<path class="st0" d="M231.5,282.9h-4.2c-0.2,0-0.4,0.2-0.4,0.4c0,0.2,0.2,0.4,0.4,0.4h4.2c0.2,0,0.4-0.2,0.4-0.4
		C231.9,283.1,231.7,282.9,231.5,282.9z"/>
	<path class="st0" d="M223.9,284.6h-8.4c-0.2,0-0.4,0.2-0.4,0.4c0,0.2,0.2,0.4,0.4,0.4h8.4c0.2,0,0.4-0.2,0.4-0.4
		C224.4,284.8,224.2,284.6,223.9,284.6z"/>
	<path class="st0" d="M228.9,284.6h-2.5c-0.2,0-0.4,0.2-0.4,0.4c0,0.2,0.2,0.4,0.4,0.4h2.5c0.2,0,0.4-0.2,0.4-0.4
		C229.4,284.8,229.2,284.6,228.9,284.6z"/>
</g>
</svg>
