<?xml version="1.0" encoding="utf-8"?>
<!-- Generator: Adobe Illustrator 19.0.0, SVG Export Plug-In . SVG Version: 6.00 Build 0)  -->
<svg version="1.1" id="processing-site" xmlns="http://www.w3.org/2000/svg" xmlns:xlink="http://www.w3.org/1999/xlink" x="0px" y="0px"
	 viewBox="708 268 24 24" style="enable-background:new 708 268 24 24;" xml:space="preserve">
<style type="text/css">
	.st0{fill:#CBE530;}
</style>
<g>
	<path class="st0" d="M712.1,282.3c0.4,0,0.8-0.4,0.8-0.8c0-0.4-0.4-0.8-0.8-0.8c-0.4,0-0.8,0.4-0.8,0.8
		C711.3,281.9,711.7,282.3,712.1,282.3 M708,283.5C708,283.5,708,283.4,708,283.5c0-0.1,0-0.1,0.1-0.1h2.6c0.1,0,0.2-0.1,0.2-0.2
		c0-0.1,0-0.2-0.1-0.2l-2.3-1.1c0,0-0.1-0.1-0.1-0.1c0,0,0-0.1,0-0.1c0,0,6.1-5.4,19.5-0.2l3.7-1.8c0,0,0.1,0,0.1,0
		c0.2,0,0.3,0.1,0.3,0.3c0,0.1,0,0.1,0,0.1l-2.2,2.7l2.2,2.7c0,0,0,0.1,0,0.2c0,0.2-0.1,0.3-0.3,0.3c0,0-0.1,0-0.1,0l-3.7-1.8
		C727.9,284,715.1,289.1,708,283.5"/>
	<path class="st0" d="M723.6,273.9v2.8h7c0.8,0,1.4-0.6,1.4-1.4c0-0.8-0.6-1.4-1.4-1.4L723.6,273.9z"/>
	<path class="st0" d="M710.4,275.9l0.6-0.3l0.4,0.7l0.7-0.5l0.5,0.7l0.6-0.5l0.5,0.6l0.6-0.5l0.5,0.6l0.6-0.6l0.6,0.6l0.6-0.6
		l0.6,0.6l0.6-0.6l0.6,0.6l0.6-0.6l0.6,0.6l0.6-0.6l0.6,0.6l0.6-0.6l0.6,0.6l0.6-0.6l0.6,0.6v-2.8H708v0
		C708.7,274.7,709.5,275.4,710.4,275.9"/>
</g>
</svg>
