<?xml version="1.0" encoding="utf-8"?>
<!-- Generator: Adobe Illustrator 19.0.0, SVG Export Plug-In . SVG Version: 6.00 Build 0)  -->
<svg version="1.1" id="Layer_1" xmlns="http://www.w3.org/2000/svg" xmlns:xlink="http://www.w3.org/1999/xlink" x="0px" y="0px"
	 viewBox="670 230 100 100" style="enable-background:new 670 230 100 100;" xml:space="preserve">
<style type="text/css">
	.st0{fill:#CBE530;}
</style>
<g>
	<path class="st0" d="M687.2,289.5c1.8,0,3.4-1.5,3.4-3.3c0-1.8-1.5-3.3-3.4-3.3c-1.8,0-3.4,1.5-3.4,3.3
		C683.8,288,685.4,289.5,687.2,289.5 M670.1,294.4c0,0-0.1-0.1-0.1-0.2c0-0.2,0.2-0.3,0.4-0.3H681c0.5,0,0.9-0.4,0.9-0.9
		c0-0.4-0.2-0.7-0.6-0.9l-9.6-4.6c-0.2-0.1-0.3-0.3-0.3-0.5c0-0.2,0-0.3,0.2-0.4c0,0,25.3-22.3,81.3-0.7l15.4-7.5
		c0.2-0.1,0.3-0.1,0.5-0.1c0.7,0,1.2,0.5,1.2,1.2c0,0.2-0.1,0.4-0.2,0.6l-9.1,11.3l9.1,11.3c0.1,0.2,0.2,0.4,0.2,0.6
		c0,0.6-0.5,1.2-1.2,1.2c-0.2,0-0.3-0.1-0.5-0.1l-15.4-7.5C752.9,296.7,699.4,318,670.1,294.4"/>
	<path class="st0" d="M735,254.5v11.8h29.1c3.2,0,5.9-2.6,5.9-5.9c0-3.3-2.6-5.9-5.9-5.9L735,254.5z"/>
	<path class="st0" d="M680.2,262.9l2.7-1.1l1.7,2.9l2.7-2l1.9,2.7l2.6-2.1l2.1,2.6l2.5-2.2l2.2,2.5l2.4-2.4l2.4,2.4l2.4-2.4l2.3,2.4
		l2.4-2.4l2.4,2.4l2.4-2.4l2.4,2.4l2.3-2.4l2.4,2.4l2.4-2.4l2.4,2.4l2.3-2.4l2.4,2.4v-11.6H670v0.1
		C672.8,257.9,676.3,260.8,680.2,262.9"/>
</g>
</svg>
