<?xml version="1.0" encoding="utf-8"?>
<!-- Generator: Adobe Illustrator 19.0.0, SVG Export Plug-In . SVG Version: 6.00 Build 0)  -->
<svg version="1.1" id="Layer_1" xmlns="http://www.w3.org/2000/svg" xmlns:xlink="http://www.w3.org/1999/xlink" x="0px" y="0px"
	 viewBox="209 268 24 24" style="enable-background:new 209 268 24 24;" xml:space="preserve">
<style type="text/css">
	.st0{fill:#1A823F;}
</style>
<path class="st0" d="M229.2,283.8v-7.5c0-1.9,0.5-3.8,1.3-5.6v0c0.3-0.6,0.2-1.3-0.2-1.8c-0.3-0.4-0.7-0.7-1.1-0.8
	c-0.5-0.1-0.9-0.1-1.3,0.2c-1.3,0.8-2.8,1.2-4.3,1.2h-3.8c-1.6,0-3.1-0.4-4.4-1.1c-0.5-0.3-1.1-0.4-1.6-0.2c-0.5,0.2-1,0.6-1.1,1.2
	c-0.2,0.5-0.1,1.1,0.2,1.6c0.7,1,1.1,2.2,1.1,3.5v11.2c0,1.3-0.4,2.5-1.1,3.5c-0.3,0.5-0.4,1.1-0.2,1.6c0.2,0.5,0.6,1,1.1,1.2
	c0.5,0.2,1.1,0.1,1.6-0.2c1.3-0.8,2.9-1.2,4.4-1.2h3.8c1.5,0,3,0.5,4.3,1.2c0.4,0.2,0.9,0.3,1.3,0.2c0.5-0.1,0.8-0.4,1.1-0.8
	c0.4-0.5,0.4-1.2,0.1-1.8C229.7,287.6,229.3,285.7,229.2,283.8L229.2,283.8z M229.7,290.7c-0.2,0.3-0.5,0.5-0.8,0.5
	c-0.2,0-0.3,0-0.5-0.1c-1.4-0.8-3.1-1.3-4.7-1.3h-3.8c-1.7,0-3.4,0.4-4.9,1.3c-0.3,0.2-0.7,0.2-1,0.1s-0.5-0.4-0.6-0.8
	c0-0.3,0-0.5,0.1-0.7c0.8-1.2,1.2-2.5,1.3-4v-11.2c0-0.3,0-0.6-0.1-0.9h4c0.2,0,0.4-0.2,0.4-0.4c0-0.2-0.2-0.4-0.4-0.4h-4.2
	c-0.2-0.8-0.6-1.5-1-2.2c-0.2-0.3-0.2-0.6-0.1-0.9c0.1-0.3,0.4-0.5,0.7-0.6c0.3-0.1,0.6,0,0.8,0.1c1.5,0.9,3.2,1.3,4.9,1.3h3.8
	c1.7,0,3.3-0.5,4.7-1.3c0.1-0.1,0.3-0.1,0.5-0.1c0.3,0,0.7,0.2,0.8,0.5c0.2,0.3,0.2,0.7,0.1,1c-0.8,1.9-1.3,3.9-1.3,5.9v7.5
	c0,1.1,0.2,2.3,0.5,3.4H225c-0.2,0-0.4,0.2-0.4,0.4c0,0.2,0.2,0.4,0.4,0.4h4.1c0.2,0.6,0.4,1.1,0.6,1.7l0,0
	C229.9,290,229.9,290.4,229.7,290.7L229.7,290.7z"/>
<path class="st0" d="M220.4,273.5h1.5c0.2,0,0.4-0.2,0.4-0.4c0-0.2-0.2-0.4-0.4-0.4h-1.5c-0.2,0-0.4,0.2-0.4,0.4
	C220,273.3,220.2,273.5,220.4,273.5z"/>
<path class="st0" d="M223.3,287.1h-1.7c-0.2,0-0.4,0.2-0.4,0.4c0,0.2,0.2,0.4,0.4,0.4h1.8c0.2,0,0.4-0.2,0.4-0.4
	S223.5,287.1,223.3,287.1L223.3,287.1z"/>
<path class="st0" d="M224.3,275.1c-0.1-0.1-0.3-0.1-0.4,0c-0.4,0.2-4.1,2.3-4.8,3.5l0,0c-0.3,0.6-0.5,1.2-0.3,1.9
	c0.1,0.7,0.5,1.2,1,1.7c-0.3,0.8-0.5,1.7-0.3,2.4c0,0.2,0.2,0.3,0.4,0.3c0,0,0.1,0,0.1,0c0.1,0,0.2-0.1,0.3-0.2
	c0.1-0.1,0.1-0.2,0-0.3c-0.1-0.5,0-1.1,0.3-1.8l0,0c0.3,0.1,0.6,0.2,0.9,0.2c0.2,0,0.5,0,0.7-0.1c0.7-0.2,1.3-0.6,1.7-1.3
	c0.7-1.2,0.7-5.4,0.7-5.9l0,0C224.5,275.4,224.4,275.2,224.3,275.1L224.3,275.1z M223.1,281c-0.2,0.4-0.6,0.7-1,0.8
	c-0.4,0.2-0.9,0.2-1.3,0c0.4-0.8,0.9-1.6,1.4-2.3c0.1-0.2,0.1-0.4-0.1-0.6c-0.2-0.1-0.4-0.1-0.6,0.1c-0.5,0.7-1,1.5-1.4,2.3
	c-0.3-0.3-0.5-0.7-0.5-1.1c-0.1-0.4,0-0.8,0.3-1.2c0.4-0.6,2.4-1.9,3.9-2.8C223.6,278,223.4,280.3,223.1,281L223.1,281z"/>
</svg>
