<?xml version="1.0" encoding="utf-8"?>
<!-- Generator: Adobe Illustrator 19.0.0, SVG Export Plug-In . SVG Version: 6.00 Build 0)  -->
<svg version="1.1" id="seed" xmlns="http://www.w3.org/2000/svg" xmlns:xlink="http://www.w3.org/1999/xlink" x="0px" y="0px"
	 viewBox="171 230 100 100" style="enable-background:new 171 230 100 100;" xml:space="preserve">
<style type="text/css">
	.st0{fill:#1A823F;}
</style>
<path class="st0" d="M253.5,295.5v-31.3c0.2-8.1,2-16,5.3-23.4v-0.1c1.1-2.5,0.8-5.3-0.7-7.5c-1.1-1.6-2.7-2.8-4.6-3.3
	s-3.9-0.2-5.6,0.7c-5.5,3.2-11.7,4.9-18.1,5.1h-16c-6.5,0.2-13-1.5-18.6-4.8c-2-1.3-4.5-1.6-6.8-0.8c-2.3,0.8-4,2.6-4.8,4.8
	c-0.8,2.3-0.5,4.8,0.8,6.8c3,4.3,4.6,9.4,4.8,14.6v47c-0.1,5.2-1.8,10.3-4.8,14.6c-1.3,2-1.6,4.5-0.8,6.8s2.5,4.1,4.8,4.8
	c2.3,0.8,4.8,0.5,6.8-0.8c5.6-3.3,12.1-5,18.6-4.8h16c6.4,0.2,12.6,1.9,18.1,5.1c1.7,0.9,3.7,1.2,5.6,0.7c1.9-0.5,3.5-1.6,4.6-3.2
	c1.5-2.3,1.7-5.1,0.6-7.6C255.4,311.6,253.6,303.6,253.5,295.5L253.5,295.5z M255.3,324.5c-0.8,1.2-2.1,1.9-3.5,1.9
	c-0.7,0-1.4-0.2-2-0.5c-6-3.5-12.8-5.4-19.8-5.5h-16.1c-7.2-0.2-14.3,1.7-20.5,5.4c-1.2,0.8-2.7,0.9-4,0.3s-2.2-1.8-2.5-3.2
	c-0.2-1,0-2.1,0.6-3c3.3-4.9,5.2-10.6,5.4-16.5v-47c0-1.3-0.1-2.6-0.3-3.8h16.7c1,0,1.8-0.8,1.8-1.8c0-1-0.8-1.8-1.8-1.8h-17.5
	c-1-3.3-2.4-6.4-4.3-9.2c-0.8-1.2-0.9-2.6-0.4-3.9s1.6-2.2,3-2.6c1.1-0.3,2.3-0.1,3.3,0.5c6.2,3.7,13.3,5.6,20.5,5.4h16
	c6.9-0.2,13.7-2.1,19.8-5.5c0.6-0.3,1.3-0.5,2-0.5c1.4,0,2.7,0.7,3.5,1.9c0.8,1.3,1,2.9,0.3,4.3c-3.5,7.8-5.4,16.2-5.6,24.8v31.3
	c0,4.7,0.7,9.5,1.9,14h-15.9c-1,0-1.8,0.8-1.8,1.8c0,1,0.8,1.8,1.8,1.8h16.9c0.8,2.3,1.6,4.8,2.7,7.3l0,0
	C256.2,321.7,256.1,323.3,255.3,324.5L255.3,324.5z"/>
<path class="st0" d="M216.6,252.5h6.2c1,0,1.8-0.8,1.8-1.8c0-1-0.8-1.8-1.8-1.8h-6.2c-1,0-1.8,0.8-1.8,1.8
	C214.8,251.7,215.6,252.5,216.6,252.5z"/>
<path class="st0" d="M228.7,309.5h-7.3c-1,0-1.8,0.8-1.8,1.8c0,1,0.8,1.8,1.8,1.8h7.3c1,0,1.8-0.8,1.7-1.8
	C230.5,310.3,229.6,309.5,228.7,309.5L228.7,309.5z"/>
<path class="st0" d="M232.8,259.4c-0.5-0.3-1.2-0.3-1.8,0c-1.8,1-17.2,9.6-20.1,14.5l0,0c-1.4,2.4-1.9,5.2-1.4,7.9
	c0.5,2.7,2,5.2,4.2,6.9c-1.3,3.4-2.1,7-1.4,9.9c0.2,0.8,0.9,1.3,1.7,1.3c0.1,0,0.3,0,0.4,0c0.5-0.1,0.8-0.4,1.1-0.8
	c0.2-0.4,0.3-0.9,0.2-1.3c-0.5-2,0.1-4.6,1.1-7.3l0,0c1.3,0.5,2.6,0.7,4,0.7c1,0,1.9-0.1,2.9-0.4c3-0.7,5.5-2.6,7-5.3
	c2.9-4.9,3-22.6,3-24.6l0,0C233.7,260.3,233.4,259.7,232.8,259.4L232.8,259.4z M227.7,283.7c-0.9,1.6-2.4,2.8-4.1,3.4
	c-1.7,0.6-3.6,0.7-5.3,0.1c1.6-3.3,3.6-6.5,5.8-9.5c0.5-0.8,0.4-1.8-0.4-2.4c-0.8-0.6-1.8-0.4-2.4,0.3c-2.3,3.1-4.3,6.3-6,9.7
	c-1.2-1.3-2-2.9-2.3-4.6c-0.2-1.8,0.2-3.5,1.1-5c1.6-2.7,9.9-8,16.1-11.7C229.9,271.2,229.2,281,227.7,283.7L227.7,283.7z"/>
</svg>
