<?xml version="1.0" encoding="utf-8"?>
<!-- Generator: Adobe Illustrator 19.0.0, SVG Export Plug-In . SVG Version: 6.00 Build 0)  -->
<svg version="1.1" id="Layer_1" xmlns="http://www.w3.org/2000/svg" xmlns:xlink="http://www.w3.org/1999/xlink" x="0px" y="0px"
	 viewBox="171 230 100 100" style="enable-background:new 171 230 100 100;" xml:space="preserve">
<path d="M184.5,316.9h25.1v-2.7h-25.1V316.9z M188.9,290.7c1.5,0.2,2.8,1.1,3.6,2.4c0.8-1.3,2.1-2.2,3.6-2.4
	C195.6,286.6,189.5,286.5,188.9,290.7L188.9,290.7z M200.7,285.9c-0.8-3.9-6.4-3.9-7.2,0c1.5,0.3,2.8,1.1,3.6,2.4
	C197.9,287,199.2,286.2,200.7,285.9z M191.8,285.9c0.8-6.1,9.8-6.1,10.6,0c2.4,0.4,4.3,2.3,4.5,4.7c2.6,0.4,4.5,2.7,4.5,5.3v1.1h2.2
	v7.2h-2.3v2.7h2.3v7.2h-2.3v2.7h2.3v7.2h-33.1v-7.2h2.3v-2.7h-2.3V307h2.3v-2.7h-2.3V297h2.1v-1.1c0-2.6,1.9-4.9,4.5-5.3
	C187.5,288.2,189.4,286.3,191.8,285.9L191.8,285.9z M205.2,290.7c-0.6-4.1-6.6-4.2-7.3,0c1.5,0.2,2.8,1.1,3.6,2.4
	C202.4,291.8,203.7,290.9,205.2,290.7L205.2,290.7z M202.4,295.9v1.1h7.3v-1.1C209.8,291.1,202.4,291.1,202.4,295.9z M193.4,295.9
	v1.1h7.3v-1.1C200.7,291.1,193.4,291.1,193.4,295.9z M184.4,295.9v1.1h7.3v-1.1C191.7,291.2,184.4,291.1,184.4,295.9z M211.9,298.7
	h-29.7v3.9h29.7V298.7z M182.2,312.5h29.7v-3.9h-29.7V312.5z M184.5,307h25.1v-2.7h-25.1V307z M182.2,322.5h29.7v-3.9h-29.7V322.5z"
	/>
<g>
	<path d="M259.9,309.4c0,0.6-0.5,1.1-1.1,1.1c-0.6,0-1.1-0.5-1.1-1.1c0-0.6,0.5-1.1,1.1-1.1C259.4,308.3,259.9,308.8,259.9,309.4"/>
	<path d="M267.2,312.6c0-0.1-4.8-11.1-16.5-11.1h-0.2c-1.3-1.3-4-3.4-8-4.1c-0.3,0-0.6,0.1-0.8,0.3s-0.2,0.6,0,0.8
		c0,0,0.9,1.7,1.6,4c-7.2,1.8-10.9,5.2-12.9,7.3c-1.1-1.4-4-4.1-10.2-4.4c-0.3,0-0.5,0.1-0.7,0.3c-0.2,0.2-0.2,0.5-0.1,0.7
		c0.1,0.2,1.8,4.4,4.9,6.4c-3.1,2-4.8,6.2-4.9,6.4c-0.1,0.2-0.1,0.5,0.1,0.7c0.2,0.2,0.4,0.3,0.7,0.3c6.2-0.3,9.1-3,10.2-4.4
		c2,2.1,5.8,5.6,13.3,7.4c-0.5,1.3-1,2.3-1,2.3c-0.1,0.3-0.1,0.6,0,0.8c0.1,0.2,0.4,0.3,0.6,0.3c0,0,0.1,0,0.1,0
		c2.5-0.4,4.2-1.6,5.4-2.5c0.6,0,1.1,0.1,1.7,0.1c11.7,0,16.5-11,16.5-11.1C267.3,313,267.3,312.8,267.2,312.6L267.2,312.6z
		 M248.9,322.7c-0.2,0-0.4,0-0.6,0.2c-0.7,0.6-1.9,1.5-3.4,2c0.2-0.5,0.4-1.1,0.6-1.8c0.1-0.2,0-0.4-0.1-0.6
		c-0.1-0.2-0.3-0.3-0.5-0.4c-8.5-1.8-12.2-5.9-14-7.8c-0.1-0.2-0.4-0.2-0.6-0.2c0,0-0.1,0-0.1,0c-0.3,0-0.5,0.2-0.6,0.4
		c-0.1,0.2-1.8,3.5-8.2,4.3c0.8-1.6,2.6-4.2,4.9-5.1c0.3-0.1,0.5-0.4,0.5-0.7s-0.2-0.6-0.5-0.7c-2.3-0.8-4.1-3.5-4.9-5.1
		c6.3,0.8,8.1,4.2,8.2,4.3c0.1,0.2,0.4,0.4,0.6,0.4c0.3,0,0.5-0.1,0.7-0.3c1.7-1.9,5.3-5.8,13.5-7.7c0.2,0,0.4-0.2,0.5-0.4
		c0.1-0.2,0.1-0.4,0.1-0.6c-0.4-1.5-0.9-2.7-1.3-3.6c2.9,0.9,4.9,2.5,5.8,3.5c0.1,0.2,0.3,0.2,0.6,0.2l0.5,0c1.5,0,2.9,0.2,4.1,0.6
		c-1.6,2.4-2.4,5.4-2.4,8.5c0,3.7,1.2,7.2,3.4,9.8C253.9,322.6,251.5,323,248.9,322.7L248.9,322.7z M257.4,321.3
		c-2.2-2.4-3.4-5.7-3.4-9.2c0-2.9,0.9-5.7,2.4-8c5.8,2.3,8.7,7.5,9.3,8.8C265.1,314.2,262.5,318.9,257.4,321.3L257.4,321.3z"/>
</g>
<path d="M261.6,264.1v-8.9c0-2-1.3-3.8-3.1-4.7l-33.8-13.2c-0.9-0.3-1.7-0.6-2.6-0.6h-3.1v-1.4c0-1.1-1-2.1-2.1-2.1
	c-1.1,0-2.1,1-2.1,2.1v1.4h-3.1c-0.9,0-1.8,0.1-2.6,0.6l-33.8,13.2c-1.8,0.7-3.1,2.6-3.1,4.7v8.9h42.6v58.5h-9.6
	c-1.1,0-2.1,1-2.1,2.1s1,2.1,2.1,2.1h23.5c1.1,0,2.1-1,2.1-2.1s-1-2.1-2.1-2.1h-9.6v-58.5L261.6,264.1L261.6,264.1z M216.2,241h2
	l13.8,12.3c0.1,0.1,0.3,0.3,0.3,0.6v6h-30.1v-6c0-0.1,0.1-0.4,0.3-0.6L216.2,241z M257.4,255.2v4.7h-20.9v-6c0-1.4-0.6-2.8-1.7-3.7
	l-8.8-7.8l30.9,12.1C257.2,254.6,257.4,254.7,257.4,255.2L257.4,255.2z M176.5,255.2c0-0.3,0.1-0.6,0.4-0.7l31.8-12.5l-9.1,8.1
	c-1,1-1.7,2.3-1.7,3.7v6h-21.4V255.2z"/>
</svg>
