<?xml version="1.0" encoding="utf-8"?>
<!-- Generator: Adobe Illustrator 19.0.0, SVG Export Plug-In . SVG Version: 6.00 Build 0)  -->
<svg version="1.1" id="street-market" xmlns="http://www.w3.org/2000/svg" xmlns:xlink="http://www.w3.org/1999/xlink" x="0px" y="0px"
	 viewBox="209 268 24 24" style="enable-background:new 209 268 24 24;" xml:space="preserve">
<path d="M212.5,288.9h6v-0.7h-6V288.9z M213.6,282.6c0.4,0.1,0.7,0.3,0.9,0.6c0.2-0.3,0.5-0.5,0.9-0.6
	C215.2,281.6,213.7,281.5,213.6,282.6L213.6,282.6z M216.4,281.4c-0.2-0.9-1.5-0.9-1.7,0c0.4,0.1,0.7,0.3,0.9,0.6
	C215.7,281.7,216,281.5,216.4,281.4z M214.3,281.4c0.2-1.5,2.3-1.5,2.6,0c0.6,0.1,1,0.6,1.1,1.1c0.6,0.1,1.1,0.6,1.1,1.3v0.3h0.5
	v1.7H219v0.7h0.6v1.7H219v0.7h0.6v1.7h-8v-1.7h0.6v-0.7h-0.6v-1.7h0.6v-0.7h-0.6v-1.7h0.5v-0.3c0-0.6,0.5-1.2,1.1-1.3
	C213.2,282,213.7,281.5,214.3,281.4L214.3,281.4z M217.5,282.6c-0.1-1-1.6-1-1.7,0c0.4,0.1,0.7,0.3,0.9,0.6
	C216.8,282.8,217.1,282.6,217.5,282.6L217.5,282.6z M216.8,283.8v0.3h1.8v-0.3C218.6,282.7,216.8,282.7,216.8,283.8z M214.7,283.8
	v0.3h1.8v-0.3C216.4,282.7,214.7,282.7,214.7,283.8z M212.5,283.8v0.3h1.8v-0.3C214.2,282.7,212.5,282.7,212.5,283.8z M219.1,284.5
	H212v0.9h7.1V284.5z M212,287.8h7.1v-0.9H212V287.8z M212.5,286.5h6v-0.7h-6V286.5z M212,290.2h7.1v-0.9H212V290.2z"/>
<g>
	<path d="M230.7,287.1c0,0.1-0.1,0.3-0.3,0.3c-0.1,0-0.3-0.1-0.3-0.3s0.1-0.3,0.3-0.3C230.5,286.8,230.7,286.9,230.7,287.1"/>
	<path d="M232.4,287.9c0,0-1.2-2.7-4-2.7h0c-0.3-0.3-1-0.8-1.9-1c-0.1,0-0.1,0-0.2,0.1c0,0.1,0,0.1,0,0.2c0,0,0.2,0.4,0.4,1
		c-1.7,0.4-2.6,1.2-3.1,1.8c-0.3-0.3-1-1-2.5-1.1c-0.1,0-0.1,0-0.2,0.1c0,0.1,0,0.1,0,0.2c0,0,0.4,1.1,1.2,1.5
		c-0.7,0.5-1.2,1.5-1.2,1.5c0,0.1,0,0.1,0,0.2c0,0.1,0.1,0.1,0.2,0.1c1.5-0.1,2.2-0.7,2.5-1.1c0.5,0.5,1.4,1.3,3.2,1.8
		c-0.1,0.3-0.2,0.5-0.2,0.5c0,0.1,0,0.1,0,0.2c0,0,0.1,0.1,0.2,0.1c0,0,0,0,0,0c0.6-0.1,1-0.4,1.3-0.6c0.1,0,0.3,0,0.4,0
		c2.8,0,4-2.6,4-2.7C232.4,288,232.4,287.9,232.4,287.9L232.4,287.9z M228,290.3c-0.1,0-0.1,0-0.1,0c-0.2,0.2-0.4,0.4-0.8,0.5
		c0.1-0.1,0.1-0.3,0.2-0.4c0-0.1,0-0.1,0-0.1c0,0-0.1-0.1-0.1-0.1c-2.1-0.4-2.9-1.4-3.4-1.9c0,0-0.1-0.1-0.1-0.1c0,0,0,0,0,0
		c-0.1,0-0.1,0-0.1,0.1c0,0-0.4,0.9-2,1c0.2-0.4,0.6-1,1.2-1.2c0.1,0,0.1-0.1,0.1-0.2c0-0.1-0.1-0.1-0.1-0.2c-0.6-0.2-1-0.8-1.2-1.2
		c1.5,0.2,1.9,1,2,1c0,0.1,0.1,0.1,0.1,0.1c0.1,0,0.1,0,0.2-0.1c0.4-0.5,1.3-1.4,3.2-1.8c0.1,0,0.1,0,0.1-0.1c0,0,0-0.1,0-0.1
		c-0.1-0.4-0.2-0.7-0.3-0.9c0.7,0.2,1.2,0.6,1.4,0.9c0,0,0.1,0.1,0.1,0.1l0.1,0c0.4,0,0.7,0.1,1,0.1c-0.4,0.6-0.6,1.3-0.6,2
		c0,0.9,0.3,1.7,0.8,2.4C229.2,290.3,228.7,290.3,228,290.3L228,290.3z M230.1,289.9c-0.5-0.6-0.8-1.4-0.8-2.2
		c0-0.7,0.2-1.4,0.6-1.9c1.4,0.5,2.1,1.8,2.2,2.1C231.9,288.2,231.3,289.4,230.1,289.9L230.1,289.9z"/>
</g>
<path d="M231.1,276.2V274c0-0.5-0.3-0.9-0.8-1.1l-8.1-3.2c-0.2-0.1-0.4-0.1-0.6-0.1h-0.8v-0.3c0-0.3-0.2-0.5-0.5-0.5
	c-0.3,0-0.5,0.2-0.5,0.5v0.3h-0.8c-0.2,0-0.4,0-0.6,0.1l-8.1,3.2c-0.4,0.2-0.8,0.6-0.8,1.1v2.2h10.2v14.1h-2.3
	c-0.3,0-0.5,0.2-0.5,0.5s0.2,0.5,0.5,0.5h5.7c0.3,0,0.5-0.2,0.5-0.5s-0.2-0.5-0.5-0.5h-2.3v-14.1L231.1,276.2L231.1,276.2z
	 M220.2,270.6h0.5l3.3,3c0,0,0.1,0.1,0.1,0.1v1.4h-7.2v-1.4c0,0,0-0.1,0.1-0.1L220.2,270.6z M230.1,274v1.1h-5v-1.4
	c0-0.3-0.1-0.7-0.4-0.9l-2.1-1.9l7.4,2.9C230,273.9,230.1,273.9,230.1,274L230.1,274z M210.6,274c0-0.1,0-0.1,0.1-0.2l7.7-3
	l-2.2,1.9c-0.2,0.2-0.4,0.5-0.4,0.9v1.4h-5.2V274z"/>
</svg>
