<?xml version="1.0" encoding="utf-8"?>
<!-- Generator: Adobe Illustrator 19.0.0, SVG Export Plug-In . SVG Version: 6.00 Build 0)  -->
<svg version="1.1" id="Layer_1" xmlns="http://www.w3.org/2000/svg" xmlns:xlink="http://www.w3.org/1999/xlink" x="0px" y="0px"
	 viewBox="171 230 100 100" style="enable-background:new 171 230 100 100;" xml:space="preserve">
<style type="text/css">
	.st0{fill:#FF0000;}
</style>
<path class="st0" d="M185.2,311.8c-1.4,0.8-3.1,0.9-4.5,0.2c-0.5-0.2-1-0.2-1.4,0c-0.9,0.5-1.9,0.5-2.8,0.1s-1.6-1.1-1.9-2
	c-0.3-0.9-0.2-1.9,0.3-2.8c0.5-0.8,1.4-1.4,2.3-1.5c0.5-0.1,1-0.4,1.2-0.8c0.7-1.2,1.8-2.1,3.2-2.4c0.6-0.2,1.1-0.7,1.3-1.3
	c0.2-0.8,0.5-1.6,0.9-2.3c0.3-0.4,0.3-0.9,0.2-1.4c-0.2-0.5-0.5-0.9-1-1c-0.7-0.3-1.1-0.9-1.1-1.7c0.1-0.7,0.6-1.3,1.3-1.5
	c0.9-0.2,1.5-1.1,1.3-2c-0.2-0.9-1.1-1.5-2-1.3c-1.2,0.3-2.2,1-3,2c-0.7,1-1,2.2-0.9,3.4c0.1,1.2,0.7,2.3,1.6,3.2
	c-0.2,0.3-0.3,0.7-0.4,1c-1.6,0.6-3,1.7-3.9,3.1c-2.1,0.6-3.8,2.2-4.5,4.2c-0.7,2-0.4,4.3,0.9,6.1c1.3,1.8,3.3,2.8,5.5,2.8
	c0.8,0,1.6-0.2,2.3-0.4c2.3,0.8,4.8,0.5,6.9-0.7c0.8-0.5,1-1.5,0.6-2.3C187,311.6,186,311.4,185.2,311.8L185.2,311.8z"/>
<path class="st0" d="M184.4,307.5c0,0.9-0.7,1.7-1.7,1.7c-0.9,0-1.7-0.7-1.7-1.7s0.7-1.7,1.7-1.7
	C183.6,305.8,184.4,306.6,184.4,307.5"/>
<path class="st0" d="M192.7,284.2c0,0.9-0.7,1.7-1.7,1.7c-0.9,0-1.7-0.7-1.7-1.7s0.7-1.7,1.7-1.7C192,282.5,192.7,283.2,192.7,284.2
	"/>
<path class="st0" d="M269.3,304.6c0.7-0.9,1-2.1,1-3.2c-0.1-1.2-0.5-2.2-1.3-3.1c0.3-0.8,0.5-1.6,0.5-2.5c0-2-0.9-3.9-2.5-5.2
	c0-1.1-0.4-2.2-1-3.2c0.2-0.5,0.2-1.1,0.2-1.7c0-1.9-0.8-3.7-2.2-4.9l5.1-6.2c0.3-0.4,0.4-0.9,0.3-1.4c-0.1-0.5-0.4-0.9-0.8-1.1
	l-5.8-3.3l-1.2-0.7l6.9,1.2c0.1,0,0.2,0,0.3,0c0.9,0,1.6-0.7,1.7-1.5c0.1-0.9-0.5-1.6-1.4-1.8l-21.3-3.8l0.3-1.6
	c0.2-0.9,1-1.5,1.9-1.4l3.3,0.6l4.9,0.9l8.2,1.4l0,0c0.9,0.1,1.7-0.5,1.9-1.4c0.2-0.9-0.4-1.8-1.3-1.9l-1.6-0.3l0,0
	c0.3-1.7-0.1-3.5-1.1-5c-1-1.4-2.6-2.4-4.3-2.7c-1.7-0.3-3.5,0.1-5,1.1s-2.4,2.6-2.7,4.3l-1.6-0.3l0,0c-1.3-0.2-2.6,0.1-3.7,0.8
	c-1.1,0.7-1.8,1.9-2.1,3.2l-0.6,3.3c-0.2,0.9,0.4,1.8,1.4,1.9l2.3,0.4l-6.1,16.2c-0.7-1.3-1.7-2.4-2.9-3.1c0.4-1,0.6-2,0.6-3
	c0-0.8-0.1-1.6-0.4-2.4c-0.3-0.9-1.2-1.4-2.1-1.1c-0.9,0.3-1.4,1.2-1.1,2c0.5,1.4,0.2,3-0.6,4.2c-0.3,0.4-0.4,1-0.2,1.4
	c0.2,0.5,0.6,0.9,1,1c1,0.3,1.8,1,2.4,1.8c0.6,0.8,0.9,1.8,0.9,2.9c0,0.4-0.1,0.8-0.2,1.2c-0.2,0.7,0.1,1.4,0.7,1.8
	c1.8,1.3,2.8,3.3,2.8,5.4c0,1-0.3,2.1-0.7,3c-0.2,0.4-0.2,1,0,1.4c0.2,0.5,0.6,0.8,1,0.9c2.1,0.6,3.8,2.3,4.5,4.5
	c0.6,2.2,0.2,4.5-1.3,6.2c-1.4,1.7-3.6,2.6-5.9,2.3c-2.2-0.2-4.2-1.6-5.2-3.6c-0.2-0.4-0.6-0.7-1-0.8c-0.4-0.1-0.9-0.1-1.3,0.2
	c-0.6,0.4-1.3,0.6-2,0.8c-0.4,0.1-0.8,0.3-1,0.7c-1.2,1.8-3.3,2.8-5.5,2.8c-2.2,0-4.2-1.1-5.5-2.8c-0.2-0.3-0.6-0.6-1-0.7
	c-0.6-0.1-1.2-0.4-1.7-0.7c-0.8-0.4-1.8-0.1-2.3,0.7s-0.1,1.8,0.7,2.3c0.6,0.3,1.3,0.6,1.9,0.8c1.9,2.4,4.8,3.7,7.8,3.7
	c3,0,5.9-1.4,7.8-3.7c0.3-0.1,0.6-0.2,0.9-0.3c1.8,2.5,4.7,3.9,7.7,4c3,0.1,6-1.2,7.9-3.5c2-2.3,2.8-5.4,2.2-8.4
	c-0.6-3-2.5-5.5-5.2-6.9c0.3-0.9,0.4-1.8,0.4-2.8v-0.1c1.7-0.2,3.3-0.9,4.5-2.1c0.6-0.6,0.6-1.7,0-2.3c-0.6-0.6-1.7-0.6-2.3,0
	c-0.7,0.7-1.7,1.1-2.7,1.2c-0.6-1.6-1.5-3-2.8-4.1c0-0.3,0.1-0.6,0-0.9c0-0.6-0.1-1.2-0.2-1.7l11.5,6.6c0.7,0.4,1.6,0.2,2.1-0.4
	l0.2-0.3c0.3,0.5,0.8,0.8,1.4,0.8c0.8,0,1.5-0.6,1.6-1.4c0.2-0.8-0.3-1.6-1-1.9l3.4-4.1l0,0c0.6,0.6,1,1.4,1,2.3
	c0,0.5-0.1,0.9-0.3,1.3c-0.3,0.6-0.1,1.4,0.4,1.9c0.5,0.5,0.8,1.1,0.8,1.8c0,0.1,0,0.3,0,0.4c-0.1,0.7,0.2,1.4,0.8,1.7
	c0.5,0.3,1,0.7,1.2,1.2c0.3,0.5,0.5,1.1,0.5,1.7c0,0.7-0.2,1.4-0.6,1.9c-0.3,0.4-0.4,0.9-0.3,1.4c0.1,0.5,0.4,0.9,0.8,1.1
	c0.6,0.3,0.9,0.9,0.9,1.5c0,0.6-0.4,1.2-1,1.5s-1,0.8-1,1.5c0,0.6,0.3,1.2,0.9,1.5c0.8,0.4,1.5,1.1,1.7,2s0.2,1.8-0.3,2.6
	c-0.5,0.8-1.3,1.4-2.2,1.5c-0.9,0.2-1.9,0-2.6-0.6c-0.5-0.4-1.2-0.4-1.7-0.1c-2,1-4.4,1-6.3-0.1c-0.4-0.2-0.8-0.3-1.3-0.2
	c-0.4,0.1-0.8,0.4-1,0.8c-0.2,0.4-0.3,0.9-0.2,1.3c0.1,0.4,0.4,0.8,0.8,1c2.6,1.5,5.8,1.8,8.7,0.6c0.9,0.5,2,0.7,3,0.7
	c1.8,0,3.5-0.7,4.7-2c1.3-1.3,2-3,2-4.7C271.1,307.5,270.4,305.9,269.3,304.6L269.3,304.6z M255.5,256.9c0.2-0.9,0.6-1.7,1.4-2.2
	c0.7-0.5,1.6-0.7,2.5-0.6c0.9,0.2,1.7,0.6,2.2,1.4c0.5,0.7,0.7,1.6,0.5,2.5L255.5,256.9L255.5,256.9z M254.4,287.1l-3.1-1.8l1.7-2.9
	c0.2-0.4,0.3-0.8,0.2-1.3c-0.1-0.4-0.4-0.8-0.8-1c-0.4-0.2-0.8-0.3-1.3-0.2c-0.4,0.1-0.8,0.4-1,0.8l-1.7,2.9l-3.1-1.8l5.8-15.6
	l0.8,0.1l1.9,1.1l-2.5,4.3l0,0c-0.5,0.8-0.2,1.8,0.6,2.3c0.8,0.5,1.8,0.2,2.3-0.6l2.5-4.3l2.9,1.7l-2.5,4.3l0,0
	c-0.2,0.4-0.3,0.8-0.2,1.3c0.1,0.4,0.4,0.8,0.8,1c0.4,0.2,0.8,0.3,1.3,0.2c0.4-0.1,0.8-0.4,1-0.8l2.5-4.3l2.6,1.5L254.4,287.1z"/>
<path class="st0" d="M260.2,295c-0.9,0-1.7,0.7-1.7,1.7c0,0.9-0.7,1.7-1.7,1.7c-0.9,0-1.7-0.7-1.7-1.7c0-0.9-0.7-1.7-1.7-1.7
	c-0.9,0-1.7,0.7-1.7,1.7c0,1.8,1,3.4,2.5,4.3c1.5,0.9,3.4,0.9,5,0c1.5-0.9,2.5-2.6,2.5-4.3c0-0.4-0.2-0.9-0.5-1.2
	S260.7,295,260.2,295z"/>
<path class="st0" d="M257.7,304.2c-0.9,0-1.7,0.7-1.7,1.7c0,0.9,0.7,1.7,1.7,1.7h1.7c0.9,0,1.7-0.7,1.7-1.7c0-0.9-0.7-1.7-1.7-1.7
	H257.7z"/>
<path class="st0" d="M217.6,294.1c-0.6-0.1-1.1,0.2-1.5,0.6c-0.4,0.5-0.5,1-0.2,1.6c0.1,0.4,0.2,0.7,0.2,1.1c0,1.1-0.6,2.1-1.5,2.7
	c-0.9,0.6-2.1,0.7-3.1,0.3s-1.8-1.3-2-2.3c-0.1-0.5-0.5-1-1-1.2c-0.5-0.2-1.1-0.2-1.5,0.2c-0.4,0.3-1,0.3-1.5,0.2s-0.9-0.6-1-1.1
	c-0.2-0.5-0.1-1,0.3-1.5c0.3-0.4,0.8-0.7,1.3-0.7c0.9,0,1.7-0.7,1.7-1.7c0-0.9-0.7-1.7-1.7-1.7c-1,0-2,0.3-2.9,0.9s-1.5,1.4-1.8,2.4
	h-2c-0.9,0-1.7,0.7-1.7,1.7c0,0.9,0.7,1.7,1.7,1.7h2c0.3,1,1,1.8,1.8,2.4c0.8,0.6,1.8,0.9,2.9,0.9c0.3,0,0.6,0,0.9-0.1
	c1,1.7,2.6,2.9,4.6,3.3c1.9,0.4,3.9-0.2,5.5-1.4s2.4-3.1,2.4-5.1v-0.3c1-0.3,1.8-1,2.4-1.8c0.6-0.8,0.9-1.8,0.9-2.9
	c0-0.9-0.7-1.7-1.7-1.7s-1.7,0.7-1.7,1.7c0,0.9-0.7,1.6-1.6,1.7L217.6,294.1z"/>
<path class="st0" d="M231.9,280c0-0.9-0.7-1.7-1.7-1.7c-0.9,0-1.7,0.7-1.7,1.7c0,0.9-0.7,1.7-1.7,1.7s-1.7-0.7-1.7-1.7
	c0-0.9-0.7-1.7-1.7-1.7s-1.7,0.7-1.7,1.7c0,0.9-0.7,1.7-1.7,1.7c-0.9,0-1.7-0.7-1.7-1.7c0-0.9-0.7-1.7-1.7-1.7
	c-0.9,0-1.7,0.7-1.7,1.7c0,1.3,0.5,2.5,1.4,3.5c0.9,0.9,2.1,1.5,3.4,1.5c1.3,0.1,2.6-0.4,3.5-1.3c1,0.9,2.2,1.3,3.5,1.3
	c1.3-0.1,2.5-0.6,3.4-1.5C231.4,282.5,231.9,281.3,231.9,280L231.9,280z"/>
<path class="st0" d="M232.7,304.2c1.8,0,3.5-0.7,4.7-2c0.6-0.6,0.6-1.7,0-2.3c-0.6-0.6-1.7-0.6-2.3,0c-0.6,0.6-1.5,1-2.4,1
	c-0.9,0-1.7-0.3-2.4-1c-0.6-0.6-1.7-0.6-2.3,0c-0.6,0.6-0.6,1.7,0,2.3C229.3,303.5,231,304.2,232.7,304.2L232.7,304.2z"/>
<path class="st0" d="M234.4,290.8c0,0.9-0.7,1.7-1.7,1.7c-0.9,0-1.7-0.7-1.7-1.7s0.7-1.7,1.7-1.7
	C233.7,289.2,234.4,289.9,234.4,290.8"/>
<path class="st0" d="M202.7,305.8c0,0.9-0.7,1.7-1.7,1.7s-1.7-0.7-1.7-1.7c0-0.9,0.7-1.7,1.7-1.7S202.7,304.9,202.7,305.8"/>
<path class="st0" d="M216.1,290.8c0,0.9-0.7,1.7-1.7,1.7s-1.7-0.7-1.7-1.7s0.7-1.7,1.7-1.7S216.1,289.9,216.1,290.8"/>
<path class="st0" d="M221.1,304.2v1.7c0,0.9,0.7,1.7,1.7,1.7c0.9,0,1.7-0.7,1.7-1.7v-1.7c0-0.9-0.7-1.7-1.7-1.7
	C221.8,302.5,221.1,303.3,221.1,304.2z"/>
<path class="st0" d="M219.4,275.8c0.7,0,1.3-0.4,1.5-1s0.1-1.3-0.4-1.8l-1.7-1.7c-0.6-0.6-1.7-0.6-2.3,0c-0.6,0.6-0.6,1.7,0,2.3
	l1.7,1.7C218.5,275.7,218.9,275.8,219.4,275.8L219.4,275.8z"/>
<path class="st0" d="M207.3,310.6c-1,1-2.2,1.6-3.6,1.8c-1.4,0.2-2.8,0-4-0.7c-0.6-0.3-1.2-0.2-1.7,0.1c-0.6,0.4-1.2,0.6-1.9,0.6
	c-1.1,0-2.1-0.5-2.7-1.4c-0.6-0.9-0.8-2-0.5-3c0.3-1,1.1-1.8,2.2-2.1c0.6-0.2,1-0.8,1.2-1.4c0-0.1,0-0.2,0.1-0.3
	c0.2-0.8-0.2-1.6-0.9-1.9c-0.4-0.2-0.8-0.6-0.9-1c-0.1-0.5-0.1-1,0.2-1.4c0.3-0.5,0.3-1,0.2-1.5c-0.2-0.5-0.6-0.9-1.2-1
	c-1.1-0.3-1.9-1-2.3-2c-0.4-1-0.3-2.2,0.3-3.1c0.6-0.9,1.6-1.4,2.7-1.5c0.2,0,0.3,0,0.5,0.1c0.7,0.1,1.5-0.3,1.8-1
	c0.5-1.2,1.4-2.2,2.5-3s2.4-1.1,3.7-1.1c1.2,0,2.4,0.3,3.4,1c0.4,0.2,0.9,0.3,1.3,0.2c0.4-0.1,0.8-0.4,1-0.8c0.4-0.8,1-1.6,1.8-2.2
	c0.4-0.3,0.6-0.7,0.6-1.2c0-0.5-0.2-0.9-0.5-1.3c-0.6-0.6-1-1.4-1-2.3c0-0.9,0.3-1.7,0.9-2.3c0.6-0.6,1.4-1,2.2-1.1
	c0.6,0,1.2-0.5,1.4-1c0.2-0.6,0.1-1.3-0.3-1.8c-0.7-0.8-1-1.8-0.8-2.9c0.2-1,0.9-1.9,1.8-2.4s2.1-0.4,3,0c0.4,0.2,0.9,0.2,1.3,0.1
	c0.4-0.2,0.8-0.5,1-0.9c0.5-1.1,1.4-2,2.5-2.5c0,0.1,0,0.2,0,0.3c-0.3,1.3-0.2,2.6,0.5,3.8l1,1.7l0,0c0.7,1.1,1.8,2,3,2.3
	c1.3,0.3,2.6,0.2,3.8-0.5l2.9-1.7l0,0c1.1-0.7,2-1.8,2.3-3c0.3-1.3,0.2-2.6-0.5-3.8l-1-1.7c-0.7-1.2-1.8-2-3-2.3
	c-0.4-0.1-0.8-0.4-1-0.8c-0.2-0.4-0.3-0.8-0.2-1.3c0.3-1.3,0.2-2.6-0.5-3.8l-1.8-3.1c-0.3-0.5-0.7-0.9-1.2-1.2s-1.1-0.4-1.7-0.4
	l-1.9-3.3c-0.4-0.8-1.2-1.3-2-1.6s-1.8-0.1-2.5,0.3l-2.9,1.7c-0.8,0.4-1.3,1.2-1.6,2s-0.1,1.8,0.3,2.5l1.9,3.3l0,0
	c-0.3,0.5-0.5,1.1-0.5,1.7c0,0.6,0.2,1.2,0.5,1.7l1.8,3.1l0,0c0.4,0.7,1,1.3,1.6,1.7c-0.9,0.6-1.6,1.3-2.2,2.1
	c-0.5-0.1-1-0.2-1.5-0.2c-1.6,0-3.2,0.6-4.4,1.7c-1.2,1.1-2,2.5-2.2,4.2l-1.7-2.4l0,0c0-0.1-0.1-0.1-0.2-0.1
	c-0.1-0.1-0.2-0.2-0.2-0.2c-0.1-0.1-0.2-0.1-0.3-0.2c-0.1-0.1-0.2-0.1-0.3-0.1c0,0-0.1,0-0.1-0.1c-0.1,0-0.1,0-0.2,0l0,0
	c-0.1,0-0.2,0-0.3,0c-0.1,0-0.2,0-0.3,0.1c-0.1,0-0.1,0-0.2,0.1l-0.2,0.1c-2.3,1.1-5,1.3-7.4,0.5c-0.4-0.2-0.9-0.1-1.3,0.1
	s-0.7,0.5-0.9,1c-0.2,0.4-0.1,0.9,0.1,1.3c0.2,0.4,0.6,0.7,1,0.8c0.9,0.3,1.8,0.5,2.7,0.6l-2.3,1.7l0,0c-0.4,0.3-0.6,0.6-0.7,1.1
	c-0.1,0.4,0,0.9,0.3,1.2l5.2,7.1l0,0c-1.1,0.1-2.2,0.3-3.2,0.7c-0.5-1.4-1.3-2.7-2.4-3.7c-1.1-1-2.5-1.7-4-1.9
	c-0.3-1.2-0.9-2.3-1.8-3.2c-0.9-0.9-2-1.5-3.3-1.8l-2.9-2.9l2.4-2.4l2.9,3c0.3,0.3,0.7,0.5,1.2,0.5c0.4,0,0.9-0.2,1.2-0.5
	c0.3-0.3,0.5-0.7,0.5-1.2c0-0.4-0.2-0.9-0.5-1.2l-3-3l0.8-0.8l10-1.1l0,0c0.8-0.1,1.4-0.7,1.5-1.5c0.1-0.8-0.4-1.5-1.1-1.8
	c-3.9-1.3-7.1-4.4-8.4-8.4c-0.2-0.7-1-1.2-1.8-1.1c-0.8,0.1-1.4,0.7-1.5,1.5l-1.1,10l-0.8,0.8l-3-2.9c-0.6-0.6-1.7-0.6-2.4,0
	c-0.6,0.6-0.6,1.7,0,2.4l3,3l-2.3,2.4l-3-3c-0.6-0.6-1.7-0.6-2.3,0s-0.6,1.7,0,2.3l3,3l-1.3,1.3c-1.5-1.3-3.3-2.2-5.2-2.9
	c-0.5-0.2-1.1-0.1-1.5,0.2c-0.4,0.3-0.7,0.8-0.7,1.4v9.4c0,0.4,0.2,0.9,0.5,1.2c0.3,0.3,0.7,0.5,1.2,0.5h6.9
	c0.5,1.7,1.6,3.2,3.2,4.1c0,0.3-0.1,0.6-0.1,0.9c0,0.9,0.7,1.7,1.7,1.7s1.7-0.7,1.7-1.7c0-0.5,0.1-1,0.2-1.4
	c0.1-0.4,0.1-0.9-0.1-1.3c-0.2-0.4-0.6-0.7-1-0.8c-0.9-0.3-1.7-0.9-2.1-1.8c0.2-0.1,0.3-0.2,0.5-0.4c0.3-0.4,0.4-1,0.2-1.5
	c-0.1-0.4-0.3-0.8-0.5-1.2l0,0c0.6-1,1.7-1.6,2.8-1.6c0.9,0,1.7,0.3,2.4,1s1,1.5,1,2.4c0,0.4,0.2,0.9,0.5,1.2
	c0.3,0.3,0.7,0.5,1.2,0.5c1.2,0,2.4,0.4,3.3,1.2c0.9,0.8,1.5,1.9,1.7,3.1c-0.8,0.7-1.4,1.5-1.9,2.4c-1.8,0.1-3.5,0.9-4.7,2.3
	c-1.2,1.4-1.8,3.2-1.6,5c0.2,1.8,1.1,3.5,2.5,4.6L187,301l0,0c-0.8,0.4-1.2,1.4-0.7,2.2c0.4,0.8,1.4,1.2,2.2,0.7l2.9-1.4
	c0.2,0.5,0.4,0.9,0.7,1.3c-1.8,1.3-2.8,3.5-2.7,5.7c0.1,2.2,1.4,4.3,3.3,5.4c1.9,1.1,4.3,1.2,6.3,0.2c1.2,0.5,2.4,0.7,3.7,0.7
	c2.6,0,5.1-1,7-2.9c0.7-0.6,0.7-1.7,0-2.4C209,310,208,310,207.3,310.6L207.3,310.6z M226.8,255.5c0.2,0.4,0.3,0.8,0.2,1.3
	c-0.3,1.3-0.2,2.6,0.5,3.8c0.7,1.1,1.8,2,3,2.3c0.4,0.1,0.8,0.4,1,0.8l1,1.7l0,0c0.5,0.8,0.2,1.8-0.6,2.3l-2.9,1.7
	c-0.4,0.2-0.8,0.3-1.3,0.2c-0.4-0.1-0.8-0.4-1-0.8l-1-1.7l0,0c-0.2-0.4-0.3-0.8-0.2-1.3c0.4-1.4,0.1-2.9-0.7-4.1c0,0,0,0,0-0.1
	c-0.7-1-1.7-1.7-2.8-2c-0.4-0.1-0.8-0.4-1-0.8l-1.8-3.1l5.8-3.3L226.8,255.5z M220.2,247.5l1.7,2.9L219,252l-1.7-2.9L220.2,247.5z
	 M191.5,257.5c0.8,1.1,1.8,2.1,2.9,2.9l-3.3,0.4L191.5,257.5z M174.4,272.3c2.2,1.2,4,3,5.2,5.2h-5.2V272.3z M180.8,273.4l1.3-1.3
	l1,1c-0.6,0.3-1.2,0.7-1.7,1.2C181.3,274,181,273.7,180.8,273.4L180.8,273.4z M206,270.9l2.4,3.3c-1.2,1-2,2.4-2.2,3.9
	s0,3.1,0.8,4.4c-0.2,0.2-0.3,0.3-0.4,0.5c0,0,0-0.1-0.1-0.1l-5.9-8.1L206,270.9z"/>
</svg>
