<?xml version="1.0" encoding="utf-8"?>
<!-- Generator: Adobe Illustrator 19.0.0, SVG Export Plug-In . SVG Version: 6.00 Build 0)  -->
<svg version="1.1" id="waste" xmlns="http://www.w3.org/2000/svg" xmlns:xlink="http://www.w3.org/1999/xlink" x="0px" y="0px"
	 viewBox="209 268 24 24" style="enable-background:new 209 268 24 24;" xml:space="preserve">
<style type="text/css">
	.st0{fill:#FF0000;}
</style>
<path class="st0" d="M212.4,287.6c-0.3,0.2-0.7,0.2-1.1,0.1c-0.1-0.1-0.2,0-0.3,0c-0.2,0.1-0.5,0.1-0.7,0c-0.2-0.1-0.4-0.3-0.5-0.5
	c-0.1-0.2,0-0.5,0.1-0.7c0.1-0.2,0.3-0.3,0.6-0.4c0.1,0,0.2-0.1,0.3-0.2c0.2-0.3,0.4-0.5,0.8-0.6c0.2,0,0.3-0.2,0.3-0.3
	c0-0.2,0.1-0.4,0.2-0.6c0.1-0.1,0.1-0.2,0-0.3c0-0.1-0.1-0.2-0.2-0.2c-0.2-0.1-0.3-0.2-0.3-0.4c0-0.2,0.1-0.3,0.3-0.4
	c0.2-0.1,0.4-0.3,0.3-0.5c-0.1-0.2-0.3-0.4-0.5-0.3c-0.3,0.1-0.5,0.2-0.7,0.5c-0.2,0.2-0.2,0.5-0.2,0.8c0,0.3,0.2,0.6,0.4,0.8
	c0,0.1-0.1,0.2-0.1,0.2c-0.4,0.1-0.7,0.4-0.9,0.7c-0.5,0.1-0.9,0.5-1.1,1s-0.1,1,0.2,1.5c0.3,0.4,0.8,0.7,1.3,0.7
	c0.2,0,0.4,0,0.6-0.1c0.5,0.2,1.2,0.1,1.7-0.2c0.2-0.1,0.3-0.4,0.1-0.5C212.8,287.6,212.6,287.5,212.4,287.6L212.4,287.6z"/>
<path class="st0" d="M212.2,286.6c0,0.2-0.2,0.4-0.4,0.4c-0.2,0-0.4-0.2-0.4-0.4s0.2-0.4,0.4-0.4C212,286.2,212.2,286.4,212.2,286.6
	"/>
<path class="st0" d="M214.2,281c0,0.2-0.2,0.4-0.4,0.4s-0.4-0.2-0.4-0.4c0-0.2,0.2-0.4,0.4-0.4S214.2,280.8,214.2,281"/>
<path class="st0" d="M232.6,285.9c0.2-0.2,0.2-0.5,0.2-0.8c0-0.3-0.1-0.5-0.3-0.7c0.1-0.2,0.1-0.4,0.1-0.6c0-0.5-0.2-0.9-0.6-1.2
	c0-0.3-0.1-0.5-0.3-0.8c0-0.1,0.1-0.3,0.1-0.4c0-0.4-0.2-0.9-0.5-1.2l1.2-1.5c0.1-0.1,0.1-0.2,0.1-0.3c0-0.1-0.1-0.2-0.2-0.3
	l-1.4-0.8l-0.3-0.2l1.7,0.3c0,0,0,0,0.1,0c0.2,0,0.4-0.2,0.4-0.4s-0.1-0.4-0.3-0.4l-5.1-0.9l0.1-0.4c0-0.2,0.2-0.4,0.5-0.3l0.8,0.1
	l1.2,0.2l2,0.3l0,0c0.2,0,0.4-0.1,0.5-0.3s-0.1-0.4-0.3-0.5l-0.4-0.1l0,0c0.1-0.4,0-0.8-0.3-1.2c-0.2-0.3-0.6-0.6-1-0.7
	c-0.4-0.1-0.8,0-1.2,0.3c-0.3,0.2-0.6,0.6-0.7,1l-0.4-0.1l0,0c-0.3-0.1-0.6,0-0.9,0.2c-0.3,0.2-0.4,0.5-0.5,0.8l-0.1,0.8
	c0,0.2,0.1,0.4,0.3,0.5l0.6,0.1l-1.5,3.9c-0.2-0.3-0.4-0.6-0.7-0.8c0.1-0.2,0.1-0.5,0.1-0.7c0-0.2,0-0.4-0.1-0.6
	c-0.1-0.2-0.3-0.3-0.5-0.3c-0.2,0.1-0.3,0.3-0.3,0.5c0.1,0.3,0.1,0.7-0.2,1c-0.1,0.1-0.1,0.2,0,0.3c0,0.1,0.1,0.2,0.2,0.3
	c0.2,0.1,0.4,0.2,0.6,0.4c0.1,0.2,0.2,0.4,0.2,0.7c0,0.1,0,0.2,0,0.3c0,0.2,0,0.3,0.2,0.4c0.4,0.3,0.7,0.8,0.7,1.3
	c0,0.2-0.1,0.5-0.2,0.7c-0.1,0.1-0.1,0.2,0,0.3c0,0.1,0.1,0.2,0.3,0.2c0.5,0.2,0.9,0.6,1.1,1.1s0,1.1-0.3,1.5
	c-0.3,0.4-0.9,0.6-1.4,0.6c-0.5-0.1-1-0.4-1.2-0.9c-0.1-0.1-0.1-0.2-0.2-0.2c-0.1,0-0.2,0-0.3,0c-0.1,0.1-0.3,0.2-0.5,0.2
	c-0.1,0-0.2,0.1-0.2,0.2c-0.3,0.4-0.8,0.7-1.3,0.7s-1-0.3-1.3-0.7c-0.1-0.1-0.1-0.1-0.2-0.2c-0.1,0-0.3-0.1-0.4-0.2
	c-0.2-0.1-0.4,0-0.5,0.2c-0.1,0.2,0,0.4,0.2,0.5c0.1,0.1,0.3,0.1,0.5,0.2c0.5,0.6,1.1,0.9,1.9,0.9c0.7,0,1.4-0.3,1.9-0.9
	c0.1,0,0.1,0,0.2-0.1c0.4,0.6,1.1,0.9,1.8,1c0.7,0,1.4-0.3,1.9-0.8c0.5-0.6,0.7-1.3,0.5-2s-0.6-1.3-1.3-1.7c0.1-0.2,0.1-0.4,0.1-0.7
	v0c0.4,0,0.8-0.2,1.1-0.5c0.2-0.2,0.2-0.4,0-0.6c-0.2-0.2-0.4-0.2-0.6,0c-0.2,0.2-0.4,0.3-0.7,0.3c-0.1-0.4-0.4-0.7-0.7-1
	c0-0.1,0-0.1,0-0.2c0-0.1,0-0.3-0.1-0.4l2.8,1.6c0.2,0.1,0.4,0.1,0.5-0.1l0.1-0.1c0.1,0.1,0.2,0.2,0.3,0.2c0.2,0,0.4-0.1,0.4-0.3
	c0-0.2-0.1-0.4-0.2-0.4l0.8-1l0,0c0.2,0.1,0.2,0.3,0.2,0.6c0,0.1,0,0.2-0.1,0.3c-0.1,0.2,0,0.3,0.1,0.5c0.1,0.1,0.2,0.3,0.2,0.4
	c0,0,0,0.1,0,0.1c0,0.2,0.1,0.3,0.2,0.4c0.1,0.1,0.2,0.2,0.3,0.3c0.1,0.1,0.1,0.3,0.1,0.4c0,0.2-0.1,0.3-0.2,0.5
	c-0.1,0.1-0.1,0.2-0.1,0.3c0,0.1,0.1,0.2,0.2,0.3c0.1,0.1,0.2,0.2,0.2,0.4s-0.1,0.3-0.2,0.4c-0.1,0.1-0.2,0.2-0.2,0.4
	c0,0.2,0.1,0.3,0.2,0.4c0.2,0.1,0.4,0.3,0.4,0.5c0.1,0.2,0,0.4-0.1,0.6s-0.3,0.3-0.5,0.4c-0.2,0-0.4,0-0.6-0.1
	c-0.1-0.1-0.3-0.1-0.4,0c-0.5,0.3-1.1,0.2-1.5,0c-0.1-0.1-0.2-0.1-0.3,0c-0.1,0-0.2,0.1-0.2,0.2c-0.1,0.1-0.1,0.2,0,0.3
	c0,0.1,0.1,0.2,0.2,0.2c0.6,0.4,1.4,0.4,2.1,0.2c0.2,0.1,0.5,0.2,0.7,0.2c0.4,0,0.8-0.2,1.1-0.5c0.3-0.3,0.5-0.7,0.5-1.1
	C233,286.6,232.9,286.2,232.6,285.9L232.6,285.9z M229.3,274.5c0-0.2,0.2-0.4,0.3-0.5c0.2-0.1,0.4-0.2,0.6-0.1
	c0.2,0,0.4,0.2,0.5,0.3c0.1,0.2,0.2,0.4,0.1,0.6L229.3,274.5L229.3,274.5z M229,281.7l-0.7-0.4l0.4-0.7c0.1-0.1,0.1-0.2,0-0.3
	c0-0.1-0.1-0.2-0.2-0.2c-0.1-0.1-0.2-0.1-0.3,0c-0.1,0-0.2,0.1-0.2,0.2l-0.4,0.7l-0.7-0.4l1.4-3.7l0.2,0l0.5,0.3l-0.6,1l0,0
	c-0.1,0.2,0,0.4,0.1,0.5c0.2,0.1,0.4,0,0.5-0.1l0.6-1l0.7,0.4l-0.6,1l0,0c-0.1,0.1-0.1,0.2,0,0.3c0,0.1,0.1,0.2,0.2,0.2
	c0.1,0.1,0.2,0.1,0.3,0c0.1,0,0.2-0.1,0.2-0.2l0.6-1l0.6,0.4L229,281.7z"/>
<path class="st0" d="M230.4,283.6c-0.2,0-0.4,0.2-0.4,0.4c0,0.2-0.2,0.4-0.4,0.4s-0.4-0.2-0.4-0.4c0-0.2-0.2-0.4-0.4-0.4
	s-0.4,0.2-0.4,0.4c0,0.4,0.2,0.8,0.6,1c0.4,0.2,0.8,0.2,1.2,0c0.4-0.2,0.6-0.6,0.6-1c0-0.1,0-0.2-0.1-0.3
	C230.6,283.6,230.5,283.6,230.4,283.6z"/>
<path class="st0" d="M229.8,285.8c-0.2,0-0.4,0.2-0.4,0.4s0.2,0.4,0.4,0.4h0.4c0.2,0,0.4-0.2,0.4-0.4s-0.2-0.4-0.4-0.4H229.8z"/>
<path class="st0" d="M220.2,283.4c-0.1,0-0.3,0-0.4,0.2c-0.1,0.1-0.1,0.3-0.1,0.4c0,0.1,0.1,0.2,0.1,0.3c0,0.3-0.1,0.5-0.4,0.7
	c-0.2,0.1-0.5,0.2-0.7,0.1c-0.2-0.1-0.4-0.3-0.5-0.6c0-0.1-0.1-0.2-0.2-0.3c-0.1-0.1-0.3,0-0.4,0c-0.1,0.1-0.2,0.1-0.4,0
	s-0.2-0.1-0.2-0.3c0-0.1,0-0.3,0.1-0.4c0.1-0.1,0.2-0.2,0.3-0.2c0.2,0,0.4-0.2,0.4-0.4s-0.2-0.4-0.4-0.4c-0.2,0-0.5,0.1-0.7,0.2
	c-0.2,0.1-0.4,0.3-0.4,0.6h-0.5c-0.2,0-0.4,0.2-0.4,0.4s0.2,0.4,0.4,0.4h0.5c0.1,0.2,0.2,0.4,0.4,0.6c0.2,0.1,0.4,0.2,0.7,0.2
	c0.1,0,0.1,0,0.2,0c0.2,0.4,0.6,0.7,1.1,0.8c0.5,0.1,0.9,0,1.3-0.3s0.6-0.8,0.6-1.2v-0.1c0.2-0.1,0.4-0.2,0.6-0.4
	c0.1-0.2,0.2-0.4,0.2-0.7c0-0.2-0.2-0.4-0.4-0.4c-0.2,0-0.4,0.2-0.4,0.4C220.6,283.2,220.4,283.4,220.2,283.4L220.2,283.4z"/>
<path class="st0" d="M223.6,280c0-0.2-0.2-0.4-0.4-0.4c-0.2,0-0.4,0.2-0.4,0.4s-0.2,0.4-0.4,0.4c-0.2,0-0.4-0.2-0.4-0.4
	s-0.2-0.4-0.4-0.4c-0.2,0-0.4,0.2-0.4,0.4s-0.2,0.4-0.4,0.4c-0.2,0-0.4-0.2-0.4-0.4s-0.2-0.4-0.4-0.4c-0.2,0-0.4,0.2-0.4,0.4
	c0,0.3,0.1,0.6,0.3,0.8c0.2,0.2,0.5,0.4,0.8,0.4c0.3,0,0.6-0.1,0.8-0.3c0.2,0.2,0.5,0.3,0.8,0.3c0.3,0,0.6-0.1,0.8-0.4
	C223.5,280.6,223.6,280.3,223.6,280L223.6,280z"/>
<path class="st0" d="M223.8,285.8c0.4,0,0.8-0.2,1.1-0.5c0.2-0.2,0.2-0.4,0-0.6c-0.2-0.2-0.4-0.2-0.6,0c-0.2,0.1-0.4,0.2-0.6,0.2
	s-0.4-0.1-0.6-0.2c-0.2-0.2-0.4-0.2-0.6,0c-0.2,0.2-0.2,0.4,0,0.6C223,285.6,223.4,285.8,223.8,285.8L223.8,285.8z"/>
<path class="st0" d="M224.2,282.6c0,0.2-0.2,0.4-0.4,0.4s-0.4-0.2-0.4-0.4c0-0.2,0.2-0.4,0.4-0.4S224.2,282.4,224.2,282.6"/>
<path class="st0" d="M216.6,286.2c0,0.2-0.2,0.4-0.4,0.4c-0.2,0-0.4-0.2-0.4-0.4s0.2-0.4,0.4-0.4C216.4,285.8,216.6,286,216.6,286.2
	"/>
<path class="st0" d="M219.8,282.6c0,0.2-0.2,0.4-0.4,0.4c-0.2,0-0.4-0.2-0.4-0.4c0-0.2,0.2-0.4,0.4-0.4
	C219.6,282.2,219.8,282.4,219.8,282.6"/>
<path class="st0" d="M221,285.8v0.4c0,0.2,0.2,0.4,0.4,0.4c0.2,0,0.4-0.2,0.4-0.4v-0.4c0-0.2-0.2-0.4-0.4-0.4
	C221.2,285.4,221,285.6,221,285.8z"/>
<path class="st0" d="M220.6,279c0.2,0,0.3-0.1,0.4-0.2c0.1-0.2,0-0.3-0.1-0.4l-0.4-0.4c-0.2-0.2-0.4-0.2-0.6,0
	c-0.2,0.2-0.2,0.4,0,0.6l0.4,0.4C220.4,279,220.5,279,220.6,279L220.6,279z"/>
<path class="st0" d="M217.7,287.4c-0.2,0.2-0.5,0.4-0.9,0.4c-0.3,0.1-0.7,0-1-0.2c-0.1-0.1-0.3-0.1-0.4,0c-0.1,0.1-0.3,0.2-0.5,0.2
	c-0.3,0-0.5-0.1-0.7-0.3c-0.2-0.2-0.2-0.5-0.1-0.7c0.1-0.2,0.3-0.4,0.5-0.5c0.1-0.1,0.3-0.2,0.3-0.3c0,0,0-0.1,0-0.1
	c0-0.2,0-0.4-0.2-0.5c-0.1,0-0.2-0.1-0.2-0.3c0-0.1,0-0.2,0.1-0.3c0.1-0.1,0.1-0.2,0-0.4c-0.1-0.1-0.2-0.2-0.3-0.2
	c-0.3-0.1-0.5-0.2-0.6-0.5c-0.1-0.2-0.1-0.5,0.1-0.7c0.1-0.2,0.4-0.3,0.7-0.4c0,0,0.1,0,0.1,0c0.2,0,0.4-0.1,0.4-0.2
	c0.1-0.3,0.3-0.5,0.6-0.7c0.3-0.2,0.6-0.3,0.9-0.3c0.3,0,0.6,0.1,0.8,0.2c0.1,0.1,0.2,0.1,0.3,0s0.2-0.1,0.2-0.2
	c0.1-0.2,0.2-0.4,0.4-0.5c0.1-0.1,0.1-0.2,0.1-0.3c0-0.1,0-0.2-0.1-0.3c-0.1-0.1-0.2-0.3-0.2-0.5c0-0.2,0.1-0.4,0.2-0.6
	c0.1-0.2,0.3-0.2,0.5-0.3c0.2,0,0.3-0.1,0.3-0.3c0.1-0.1,0-0.3-0.1-0.4c-0.2-0.2-0.2-0.4-0.2-0.7c0-0.2,0.2-0.5,0.4-0.6
	s0.5-0.1,0.7,0c0.1,0.1,0.2,0.1,0.3,0c0.1,0,0.2-0.1,0.2-0.2c0.1-0.3,0.3-0.5,0.6-0.6c0,0,0,0.1,0,0.1c-0.1,0.3,0,0.6,0.1,0.9
	l0.2,0.4l0,0c0.2,0.3,0.4,0.5,0.7,0.6c0.3,0.1,0.6,0,0.9-0.1l0.7-0.4l0,0c0.3-0.2,0.5-0.4,0.6-0.7c0.1-0.3,0-0.6-0.1-0.9l-0.2-0.4
	c-0.2-0.3-0.4-0.5-0.7-0.6c-0.1,0-0.2-0.1-0.2-0.2c-0.1-0.1-0.1-0.2,0-0.3c0.1-0.3,0-0.6-0.1-0.9l-0.4-0.8c-0.1-0.1-0.2-0.2-0.3-0.3
	c-0.1-0.1-0.3-0.1-0.4-0.1l-0.5-0.8c-0.1-0.2-0.3-0.3-0.5-0.4c-0.2-0.1-0.4,0-0.6,0.1l-0.7,0.4c-0.2,0.1-0.3,0.3-0.4,0.5
	c-0.1,0.2,0,0.4,0.1,0.6l0.5,0.8l0,0c-0.1,0.1-0.1,0.3-0.1,0.4c0,0.1,0,0.3,0.1,0.4l0.4,0.8l0,0c0.1,0.2,0.2,0.3,0.4,0.4
	c-0.2,0.1-0.4,0.3-0.5,0.5c-0.1,0-0.2,0-0.4,0c-0.4,0-0.8,0.1-1.1,0.4c-0.3,0.3-0.5,0.6-0.5,1l-0.4-0.6l0,0c0,0,0,0,0,0
	c0,0,0,0-0.1-0.1c0,0,0,0-0.1,0c0,0-0.1,0-0.1,0c0,0,0,0,0,0s0,0,0,0l0,0c0,0-0.1,0-0.1,0s-0.1,0-0.1,0c0,0,0,0,0,0l-0.1,0
	c-0.6,0.3-1.2,0.3-1.8,0.1c-0.1,0-0.2,0-0.3,0s-0.2,0.1-0.2,0.2c0,0.1,0,0.2,0,0.3c0.1,0.1,0.1,0.2,0.2,0.2c0.2,0.1,0.4,0.1,0.7,0.1
	l-0.6,0.4l0,0c-0.1,0.1-0.1,0.2-0.2,0.3c0,0.1,0,0.2,0.1,0.3l1.2,1.7l0,0c-0.3,0-0.5,0.1-0.8,0.2c-0.1-0.3-0.3-0.7-0.6-0.9
	c-0.3-0.2-0.6-0.4-1-0.5c-0.1-0.3-0.2-0.6-0.4-0.8c-0.2-0.2-0.5-0.4-0.8-0.4l-0.7-0.7l0.6-0.6l0.7,0.7c0.1,0.1,0.2,0.1,0.3,0.1
	s0.2,0,0.3-0.1c0.1-0.1,0.1-0.2,0.1-0.3c0-0.1,0-0.2-0.1-0.3l-0.7-0.7l0.2-0.2l2.4-0.3l0,0c0.2,0,0.3-0.2,0.4-0.4
	c0-0.2-0.1-0.4-0.3-0.4c-0.9-0.3-1.7-1.1-2-2c-0.1-0.2-0.2-0.3-0.4-0.3c-0.2,0-0.3,0.2-0.4,0.4l-0.3,2.4l-0.2,0.2l-0.7-0.7
	c-0.2-0.2-0.4-0.2-0.6,0c-0.2,0.2-0.2,0.4,0,0.6l0.7,0.7l-0.6,0.6l-0.7-0.7c-0.2-0.2-0.4-0.2-0.6,0s-0.2,0.4,0,0.6l0.7,0.7l-0.3,0.3
	c-0.4-0.3-0.8-0.5-1.3-0.7c-0.1,0-0.3,0-0.4,0.1c-0.1,0.1-0.2,0.2-0.2,0.3v2.3c0,0.1,0,0.2,0.1,0.3c0.1,0.1,0.2,0.1,0.3,0.1h1.6
	c0.1,0.4,0.4,0.8,0.8,1c0,0.1,0,0.1,0,0.2c0,0.2,0.2,0.4,0.4,0.4c0.2,0,0.4-0.2,0.4-0.4c0-0.1,0-0.2,0.1-0.3c0-0.1,0-0.2,0-0.3
	c-0.1-0.1-0.1-0.2-0.2-0.2c-0.2-0.1-0.4-0.2-0.5-0.4c0,0,0.1-0.1,0.1-0.1c0.1-0.1,0.1-0.2,0.1-0.4c0-0.1-0.1-0.2-0.1-0.3l0,0
	c0.1-0.2,0.4-0.4,0.7-0.4c0.2,0,0.4,0.1,0.6,0.2s0.2,0.4,0.2,0.6c0,0.1,0,0.2,0.1,0.3s0.2,0.1,0.3,0.1c0.3,0,0.6,0.1,0.8,0.3
	c0.2,0.2,0.4,0.5,0.4,0.7c-0.2,0.2-0.3,0.4-0.5,0.6c-0.4,0-0.8,0.2-1.1,0.5c-0.3,0.3-0.4,0.8-0.4,1.2c0,0.4,0.3,0.8,0.6,1.1
	l-0.8,0.4l0,0c-0.2,0.1-0.3,0.3-0.2,0.5c0.1,0.2,0.3,0.3,0.5,0.2l0.7-0.3c0,0.1,0.1,0.2,0.2,0.3c-0.4,0.3-0.7,0.8-0.6,1.4
	c0,0.5,0.3,1,0.8,1.3s1,0.3,1.5,0c0.3,0.1,0.6,0.2,0.9,0.2c0.6,0,1.2-0.2,1.7-0.7c0.2-0.2,0.2-0.4,0-0.6
	C218.1,287.2,217.9,287.2,217.7,287.4L217.7,287.4z M222.4,274.1c0.1,0.1,0.1,0.2,0,0.3c-0.1,0.3,0,0.6,0.1,0.9
	c0.2,0.3,0.4,0.5,0.7,0.6c0.1,0,0.2,0.1,0.2,0.2l0.2,0.4l0,0c0.1,0.2,0,0.4-0.1,0.5l-0.7,0.4c-0.1,0.1-0.2,0.1-0.3,0
	c-0.1,0-0.2-0.1-0.2-0.2l-0.2-0.4l0,0c-0.1-0.1-0.1-0.2,0-0.3c0.1-0.3,0-0.7-0.2-1c0,0,0,0,0,0c-0.2-0.2-0.4-0.4-0.7-0.5
	c-0.1,0-0.2-0.1-0.2-0.2l-0.4-0.8l1.4-0.8L222.4,274.1z M220.8,272.2l0.4,0.7l-0.7,0.4l-0.4-0.7L220.8,272.2z M213.9,274.6
	c0.2,0.3,0.4,0.5,0.7,0.7l-0.8,0.1L213.9,274.6z M209.8,278.1c0.5,0.3,1,0.7,1.3,1.3h-1.3V278.1z M211.3,278.4l0.3-0.3l0.3,0.3
	c-0.2,0.1-0.3,0.2-0.4,0.3C211.5,278.6,211.4,278.5,211.3,278.4L211.3,278.4z M217.4,277.8l0.6,0.8c-0.3,0.2-0.5,0.6-0.5,0.9
	c-0.1,0.4,0,0.7,0.2,1.1c0,0-0.1,0.1-0.1,0.1c0,0,0,0,0,0l-1.4-1.9L217.4,277.8z"/>
</svg>
